<svg width="66" height="143" viewBox="0 0 66 143" fill="none" xmlns="http://www.w3.org/2000/svg">
<g clip-path="url(#clip0_172_2)">
<path d="M37.3997 26.774V18.568C38.1477 18.128 38.8077 17.622 39.4017 17.006L58.4977 36.102C59.3557 36.96 60.4777 37.4 61.5997 37.4C62.7217 37.4 63.8437 36.96 64.7017 36.102C66.4177 34.386 66.4177 31.592 64.7017 29.876L36.1017 1.29799C34.3857 -0.418014 31.5917 -0.418014 29.8757 1.29799L1.29774 29.898C-0.418258 31.614 -0.418258 34.408 1.29774 36.124C3.01374 37.84 5.80774 37.84 7.52374 36.124L26.5977 17.006C27.1697 17.622 27.8517 18.15 28.5997 18.568V26.774L1.29774 54.098C-0.418258 55.814 -0.418258 58.608 1.29774 60.324C3.01374 62.04 5.80774 62.04 7.52374 60.324L25.6517 42.196C26.3997 43.34 27.4337 44.286 28.6217 44.99V50.6C28.6217 53.02 30.6017 55 33.0217 55C35.4417 55 37.4217 53.02 37.4217 50.6V44.99C38.6097 44.286 39.6437 43.362 40.3917 42.196L58.5197 60.324C59.3777 61.182 60.4997 61.622 61.6217 61.622C62.7437 61.622 63.8657 61.182 64.7237 60.324C66.4397 58.608 66.4397 55.814 64.7237 54.098L37.4217 26.796L37.3997 26.774Z" fill="#FFFAFF"/>
<path d="M64.7023 88.902C66.4183 87.186 66.4183 84.392 64.7023 82.676C62.9863 80.96 60.1923 80.96 58.4763 82.676L40.3483 100.804C39.6003 99.66 38.5663 98.714 37.3783 98.01V94.6C37.3783 92.18 35.3983 90.2 32.9783 90.2C30.5583 90.2 28.5783 92.18 28.5783 94.6V98.01C27.3903 98.714 26.3563 99.638 25.6083 100.804L7.48031 82.676C5.76431 80.96 2.97031 80.96 1.25431 82.676C-0.461687 84.392 -0.461687 87.186 1.25431 88.902L28.5563 116.204V122.21C27.3683 122.914 26.3343 123.838 25.5863 125.004L7.45831 106.876C5.74231 105.16 2.94831 105.16 1.23231 106.876C-0.483687 108.592 -0.483687 111.386 1.23231 113.102L29.8323 141.702C30.6903 142.56 31.8123 143 32.9343 143C34.0563 143 35.1783 142.56 36.0363 141.702L64.6363 113.102C66.3523 111.386 66.3523 108.592 64.6363 106.876C62.9203 105.16 60.1263 105.16 58.4103 106.876L40.2823 125.004C39.5343 123.86 38.5003 122.914 37.3123 122.21V116.204L64.6143 88.902H64.7023Z" fill="#FFFAFF"/>
<path d="M32.9996 85.8C35.4196 85.8 37.3996 83.82 37.3996 81.4V63.8C37.3996 61.38 35.4196 59.4 32.9996 59.4C30.5796 59.4 28.5996 61.38 28.5996 63.8V81.4C28.5996 83.82 30.5796 85.8 32.9996 85.8Z" fill="#FFFAFF"/>
</g>
<defs>
<clipPath id="clip0_172_2">
<rect width="66" height="143" fill="white"/>
</clipPath>
</defs>
</svg>
